<?xml version="1.0" encoding="utf-8"?>
<svg version="1.0" xmlns="http://www.w3.org/2000/svg" width="1600.000000pt" height="1600.000000pt" viewBox="0 0 447.989 447.995" preserveAspectRatio="xMidYMid meet">
  <g transform="translate(0.000000,1600.000000) scale(0.100000,-0.100000)" fill="#000000" stroke="none">
    <path d="M423 15032 c-28 -18 -32 -65 -27 -314 6 -271 8 -303 25 -292 8 5 10 91 7 286 -3 153 -1 281 3 284 7 4 135 6 282 4 l27 0 1 -287 c0 -159 4 -279 8 -268 7 18 9 17 15 -10 l7 -30 77 -2 c143 -2 197 -6 210 -16 8 -6 12 -42 12 -114 0 -67 4 -102 10 -98 18 11 11 -14 -10 -35 -18 -18 -33 -20 -159 -20 -126 0 -139 -2 -137 -17 1 -12 -5 -17 -16 -15 -17 3 -18 -30 -20 -530 l-3 -533 -144 -3 c-94 -2 -148 1 -157 9 -11 9 -12 102 -8 529 4 347 2 520 -4 524 -6 3 -13 -2 -16 -11 -2 -10 -8 -248 -11 -529 l-7 -512 21 -21 c20 -20 32 -21 174 -21 107 0 158 4 170 13 16 11 17 58 19 547 l3 535 145 3 c189 3 180 -5 180 167 0 172 9 164 -180 167 l-145 3 -3 289 c-2 252 -4 292 -19 308 -14 16 -34 18 -167 18 -83 0 -156 -4 -163 -8z m240 -9 c-40 -2 -107 -2 -150 0 -43 1 -10 3 72 3 83 0 118 -2 78 -3z m-256 -165 c-2 -24 -4 -7 -4 37 0 44 2 63 4 43 2 -21 2 -57 0 -80z m350 -865 c-3 -10 -5 -2 -5 17 0 19 2 27 5 18 2 -10 2 -26 0 -35z m-350 -825 c-1 -68 -3 -15 -3 117 0 132 2 187 3 123 2 -64 2 -172 0 -240z m241 -165 c-38 -2 -98 -2 -135 0 -38 2 -7 3 67 3 74 0 105 -1 68 -3z" style="fill: rgb(255, 255, 30);"/>
    <path d="M3134 14835 c-14 -21 -16 -46 -12 -151 6 -177 -20 -164 324 -164 151 0 274 -4 274 -9 0 -4 -86 -131 -190 -280 -105 -150 -188 -277 -184 -282 3 -5 1 -8 -5 -7 -6 2 -21 -12 -32 -29 l-21 -33 29 0 c15 0 53 3 83 7 52 7 53 8 20 13 -19 3 15 6 75 6 61 0 94 -3 75 -6 -33 -5 -32 -6 20 -13 30 -3 66 -4 80 -1 18 4 21 3 12 -4 -11 -7 -8 -11 13 -16 14 -4 31 -4 37 0 7 4 8 3 4 -4 -4 -7 -1 -12 6 -12 8 0 35 -13 60 -29 25 -16 49 -26 53 -23 4 4 5 0 3 -8 -2 -9 3 -14 12 -12 8 2 12 0 8 -3 -4 -4 -2 -17 4 -29 6 -11 17 -48 24 -81 15 -69 17 -100 4 -70 -8 17 -9 16 -11 -10 -1 -16 -2 -36 -2 -43 1 -7 -1 -11 -4 -8 -3 3 -15 -6 -26 -21 -11 -14 -40 -38 -64 -53 -23 -15 -39 -31 -35 -35 4 -5 2 -5 -5 -1 -12 7 -103 -14 -103 -24 0 -3 -51 -4 -112 -2 -135 3 -157 5 -152 13 2 4 -4 10 -14 13 -9 4 -47 25 -84 47 -45 27 -73 39 -87 34 -20 -6 -54 -51 -54 -72 0 -7 -7 -15 -15 -18 -9 -3 -12 -12 -8 -22 4 -10 4 -14 0 -10 -10 10 -46 -52 -38 -65 4 -6 3 -8 -3 -5 -5 3 -24 -23 -41 -59 -31 -61 -31 -66 -16 -89 15 -23 26 -29 47 -26 4 0 6 -4 5 -10 -4 -14 113 -80 130 -74 7 3 10 1 7 -4 -7 -12 31 -24 46 -15 8 5 9 3 4 -6 -6 -10 -3 -12 13 -8 12 4 20 3 17 -1 -9 -15 143 -44 256 -49 86 -3 138 0 200 13 99 20 232 72 222 87 -3 7 -1 8 5 4 15 -9 93 44 150 101 53 54 124 163 117 181 -3 8 0 10 7 6 7 -5 9 0 6 14 -4 12 -3 20 2 17 14 -9 31 78 37 190 6 128 -10 222 -53 309 -32 65 -91 139 -105 130 -5 -3 -8 0 -7 8 2 7 -3 12 -9 11 -7 -2 -12 2 -10 8 3 14 -124 91 -141 84 -7 -2 -10 0 -7 5 6 9 -10 14 -42 13 -7 -1 -11 3 -8 7 8 13 -47 21 -79 12 -27 -7 -26 -9 32 -25 76 -21 179 -68 212 -96 95 -82 136 -143 167 -247 20 -67 23 -276 6 -352 -18 -76 -82 -191 -139 -249 -29 -31 -51 -59 -49 -63 3 -4 -1 -7 -8 -6 -6 0 -46 -17 -87 -38 -134 -69 -242 -96 -387 -96 -233 0 -531 116 -537 209 -1 22 2 27 12 23 12 -4 14 1 8 21 -5 21 -3 25 9 21 8 -4 15 -1 15 4 0 6 23 51 52 101 58 102 62 104 136 67 26 -13 53 -21 60 -19 7 3 10 -1 7 -9 -8 -22 98 -58 170 -58 57 0 176 20 189 32 6 4 19 8 30 9 27 1 112 63 108 79 -1 6 2 8 8 5 14 -9 35 17 60 73 53 117 -11 246 -155 313 -78 37 -149 49 -294 49 -96 0 -112 -2 -107 -15 3 -9 0 -15 -9 -15 -11 0 -12 6 -4 29 6 15 18 37 27 48 9 10 22 26 27 35 6 9 25 37 43 62 17 25 46 67 64 94 18 26 36 49 40 50 4 2 8 10 8 17 0 7 4 15 8 17 5 2 34 41 65 88 31 47 62 92 69 101 31 37 39 59 28 79 -10 19 -22 20 -278 21 -158 0 -259 4 -247 9 18 8 17 9 -7 9 -16 1 -29 8 -32 19 -11 37 -10 240 1 254 10 11 96 13 507 13 340 0 498 -3 506 -11 7 -7 3 -24 -16 -57 -14 -26 -30 -47 -35 -47 -5 0 -9 -5 -9 -11 0 -5 -25 -44 -55 -84 -30 -41 -55 -79 -55 -83 0 -5 -24 -40 -53 -78 -72 -93 -135 -196 -130 -212 3 -7 -1 -10 -11 -6 -19 7 -22 -12 -3 -19 7 -4 3 -8 -11 -13 l-23 -7 27 -13 c14 -8 31 -14 38 -13 6 0 1 4 -12 9 l-23 10 27 42 c15 24 103 153 197 287 93 134 174 256 180 271 8 22 8 32 -2 44 -12 14 -72 16 -537 16 l-524 0 -16 -25z m3 -157 c-2 -24 -4 -5 -4 42 0 47 2 66 4 43 2 -24 2 -62 0 -85z" style="fill: rgb(255, 255, 30);"/>
    <path d="M2047 14443 c-15 -2 -25 -8 -22 -13 3 -4 -3 -6 -13 -3 -24 6 -163 -48 -155 -60 3 -6 1 -7 -5 -3 -19 11 -176 -89 -165 -107 3 -5 -4 -4 -16 2 -17 10 -20 9 -15 -4 4 -8 10 -15 15 -15 5 0 51 25 101 55 51 31 103 58 116 62 13 3 21 11 19 17 -3 6 5 12 17 12 11 1 39 7 61 14 22 7 111 13 197 15 86 2 162 6 169 11 7 4 10 3 6 -3 -8 -12 14 -23 45 -23 11 0 45 -14 76 -31 166 -91 250 -191 311 -369 34 -96 43 -152 48 -280 9 -215 -58 -411 -183 -540 -58 -60 -175 -129 -254 -150 -76 -21 -77 -21 -55 -30 11 -4 -17 -5 -62 -2 -95 5 -146 -8 -73 -18 30 -5 10 -7 -65 -7 -70 0 -96 2 -70 7 39 6 40 6 12 14 -15 5 -54 6 -85 4 -31 -3 -51 -3 -44 -1 18 7 4 23 -19 23 -22 0 -96 33 -153 68 -25 16 -42 20 -48 14 -12 -12 25 -35 37 -24 5 4 5 2 1 -5 -8 -14 89 -67 104 -58 6 4 10 1 10 -5 0 -7 7 -9 16 -6 8 3 13 2 10 -3 -9 -14 140 -41 227 -41 46 0 110 5 143 11 76 13 184 48 184 60 0 4 6 6 13 4 22 -9 165 94 215 154 64 76 95 128 86 142 -4 7 -3 9 3 6 13 -8 36 50 26 66 -3 5 -1 7 4 4 7 -4 18 21 29 66 30 117 24 460 -8 441 -7 -4 -8 -2 -4 5 9 15 -3 73 -14 66 -4 -3 -6 5 -2 17 4 16 2 19 -8 13 -9 -5 -11 -4 -6 4 9 15 -3 53 -15 46 -5 -3 -7 0 -4 7 8 20 -63 134 -120 192 -61 64 -159 131 -176 120 -7 -4 -10 -3 -6 3 4 6 -22 20 -61 33 -55 19 -91 24 -207 26 -77 1 -152 0 -168 -3z m71 -10 c-10 -2 -26 -2 -35 0 -10 3 -2 5 17 5 19 0 27 -2 18 -5z m190 0 c-10 -2 -26 -2 -35 0 -10 3 -2 5 17 5 19 0 27 -2 18 -5z m549 -695 c-2 -13 -4 -5 -4 17 -1 22 1 32 4 23 2 -10 2 -28 0 -40z" style="fill: rgb(255, 255, 30);"/>
    <path d="M302 14421 c-123 -8 -122 -7 -122 -171 0 -158 -1 -157 127 -162 50 -2 89 0 86 5 -2 4 -16 8 -31 8 l-27 1 30 8 c21 5 4 8 -58 9 l-88 1 -6 33 -7 32 -7 -30 c-4 -16 -7 24 -7 90 0 75 3 109 8 90 6 -25 8 -26 9 -7 1 25 18 63 32 73 5 3 42 4 82 4 55 -1 74 2 74 12 0 7 -1 12 -1 11 -1 -1 -43 -4 -94 -7z" style="fill: rgb(255, 255, 30);"/>
    <path d="M1334 14406 c-21 -15 -21 -23 -27 -618 -4 -332 -12 -752 -19 -934 -11 -308 -11 -334 5 -358 l17 -26 158 0 c86 0 162 4 169 8 28 18 33 69 32 340 0 255 -7 343 -23 302 -3 -8 -7 -146 -8 -306 -2 -229 -6 -294 -17 -307 -11 -14 -35 -17 -152 -17 -80 0 -140 4 -144 10 -5 8 -6 276 -1 560 0 30 -3 66 -8 79 -6 16 -5 21 3 17 6 -4 11 -3 11 3 0 5 -6 12 -12 15 -10 5 -10 7 0 12 6 3 12 15 12 25 0 11 -4 17 -10 14 -14 -9 -12 7 5 28 11 15 14 116 15 570 1 530 1 552 20 569 21 20 35 24 25 8 -3 -5 1 -10 10 -10 9 0 13 5 10 10 -4 6 25 9 82 8 l88 -2 -75 -6 -75 -6 86 -2 c96 -2 93 0 104 -76 8 -49 27 -58 33 -16 7 42 -17 100 -44 110 -42 16 -246 12 -270 -4z m-17 -1038 c-1 -62 -3 -14 -3 107 0 121 2 172 3 113 2 -59 2 -158 0 -220z m340 -701 c-1 -73 -3 -10 -3 138 0 149 2 208 3 132 2 -76 2 -198 0 -270z m-350 226 c-2 -21 -4 -6 -4 32 0 39 2 55 4 38 2 -18 2 -50 0 -70z m-10 -320 c-2 -38 -3 -7 -3 67 0 74 1 105 3 68 2 -38 2 -98 0 -135z" style="fill: rgb(255, 255, 30);"/>
    <path d="M1975 14149 c-16 -5 -45 -15 -64 -21 -91 -29 -203 -129 -241 -216 -23 -51 -24 -56 -10 -47 7 4 10 -52 9 -162 -1 -110 -4 -159 -10 -143 -6 19 -7 16 -3 -15 9 -65 63 -153 85 -139 7 4 10 3 6 -3 -10 -16 50 -70 108 -98 60 -29 196 -44 295 -32 87 10 178 55 229 114 23 25 38 49 35 54 -3 5 1 7 8 4 17 -7 53 50 78 124 28 84 27 274 -1 229 -7 -10 -9 -9 -9 4 0 9 5 18 11 20 7 2 5 19 -7 48 -26 65 -57 111 -72 105 -7 -3 -10 0 -6 6 8 14 -50 75 -96 100 -19 11 -42 23 -50 28 -75 44 -221 63 -295 40z m155 -20 l-35 -6 40 -4 c22 -1 50 -3 62 -3 12 0 19 -4 17 -8 -5 -8 14 -12 44 -11 7 1 11 -1 8 -4 -3 -3 14 -18 37 -33 23 -15 61 -47 84 -72 23 -26 44 -44 46 -41 3 2 4 -4 4 -14 -1 -10 3 -17 9 -16 7 1 11 -3 11 -10 -1 -31 4 -48 12 -43 5 4 7 -4 4 -16 -4 -19 -3 -20 6 -8 9 12 10 9 5 -12 -3 -15 -3 -31 0 -37 4 -6 8 -51 9 -102 2 -54 0 -84 -5 -73 -6 13 -7 8 -3 -14 3 -23 1 -31 -7 -26 -7 5 -9 0 -6 -14 4 -12 3 -20 -2 -17 -11 7 -22 -24 -13 -37 3 -7 1 -8 -5 -4 -11 7 -17 -7 -12 -29 1 -5 -2 -7 -6 -3 -3 4 -19 -9 -35 -28 -15 -19 -44 -48 -63 -63 -19 -16 -32 -32 -28 -35 4 -4 2 -6 -3 -5 -16 5 -56 -12 -50 -21 3 -4 -5 -6 -17 -2 -13 3 -19 1 -15 -5 5 -7 -1 -9 -15 -6 -14 3 -18 1 -11 -4 6 -5 -39 -9 -105 -11 -64 -2 -121 -6 -126 -9 -5 -4 -6 -1 -1 7 6 9 0 11 -26 5 -27 -5 -31 -4 -19 5 12 10 11 11 -8 7 -14 -3 -20 -1 -15 6 4 7 0 8 -11 4 -11 -5 -15 -3 -10 5 5 8 2 9 -10 5 -11 -5 -15 -3 -10 5 5 8 1 9 -12 4 -10 -4 -15 -4 -11 0 4 4 -9 18 -28 31 -20 13 -49 42 -64 63 -16 22 -32 36 -36 32 -5 -4 -5 -2 -2 5 9 14 -2 45 -13 38 -4 -3 -8 79 -9 182 -1 103 -5 191 -8 196 -4 6 -1 7 7 2 10 -6 12 -4 7 9 -5 11 -3 15 5 10 8 -5 9 -2 5 10 -5 11 -3 15 5 10 8 -5 9 -1 4 12 -4 10 -4 16 -1 12 8 -7 91 82 87 94 -1 4 1 7 5 6 15 -5 72 36 66 46 -4 5 0 7 9 3 21 -8 92 14 77 24 -6 4 10 5 37 3 36 -2 41 -1 19 4 -19 5 4 7 65 8 58 0 82 -3 60 -7z m377 -456 c-2 -16 -4 -3 -4 27 0 30 2 43 4 28 2 -16 2 -40 0 -55z" style="fill: rgb(255, 255, 30);"/>
    <path d="M1674 13128 c-4 -7 -3 -10 1 -5 5 4 17 -1 27 -10 13 -11 22 -13 29 -6 7 7 5 14 -6 23 -12 10 -15 10 -15 0 0 -10 -3 -10 -14 -1 -11 9 -16 9 -22 -1z" style="fill: rgb(255, 255, 30);"/>
  </g>
</svg>